<svg width="219" height="68" viewBox="0 0 219 68" fill="none" xmlns="http://www.w3.org/2000/svg">
<path d="M207.5 25.2907C213.391 25.2907 218.167 20.5151 218.167 14.624C218.167 8.73299 213.391 3.95736 207.5 3.95736C201.609 3.95736 196.833 8.73299 196.833 14.624C196.833 20.5151 201.609 25.2907 207.5 25.2907ZM106 26.2212L104.493 27.5357L106 26.2212ZM0.585786 51.3065C-0.195262 52.0876 -0.195262 53.3539 0.585786 54.1349L13.3137 66.8629C14.0948 67.6439 15.3611 67.6439 16.1421 66.8629C16.9232 66.0818 16.9232 64.8155 16.1421 64.0344L4.82843 52.7207L16.1421 41.407C16.9232 40.626 16.9232 39.3596 16.1421 38.5786C15.3611 37.7975 14.0948 37.7975 13.3137 38.5786L0.585786 51.3065ZM2 54.7207C3.33337 54.7207 4.64121 54.6964 5.92426 54.6489L5.7762 50.6516C4.54319 50.6973 3.28472 50.7207 2 50.7207V54.7207ZM13.6371 54.0586C16.3107 53.7433 18.8644 53.3214 21.3065 52.8061L20.4806 48.8923C18.1584 49.3823 15.724 49.7848 13.1686 50.0861L13.6371 54.0586ZM28.8574 50.8203C31.4239 50.0049 33.8494 49.0837 36.1474 48.078L34.5438 44.4136C32.3713 45.3643 30.0767 46.2359 27.6463 47.008L28.8574 50.8203ZM43.1245 44.5739C45.4605 43.243 47.6449 41.8335 49.6982 40.3791L47.3861 37.115C45.4303 38.5003 43.3565 39.838 41.1444 41.0984L43.1245 44.5739ZM55.8336 35.6228C57.8806 33.9008 59.7861 32.1666 61.5777 30.4722L58.8292 27.566C57.0757 29.2244 55.2298 30.9036 53.2586 32.5619L55.8336 35.6228ZM67.0534 25.1519C68.9783 23.2621 70.7641 21.5273 72.4909 20.0006L69.8414 17.0039C68.0268 18.6082 66.1728 20.4109 64.2511 22.2976L67.0534 25.1519ZM78.2338 15.7262C80.3504 14.5302 82.3766 13.8928 84.4727 13.877L84.4426 9.87713C81.5047 9.89922 78.8144 10.8038 76.266 12.2437L78.2338 15.7262ZM90.7963 15.5687C92.5672 16.4792 94.5022 17.7963 96.6401 19.6112L99.2288 16.5618C96.9183 14.6004 94.7304 13.0937 92.6253 12.0113L90.7963 15.5687ZM101.954 24.7257C102.776 25.6013 103.622 26.5371 104.493 27.5357L107.507 24.9067C106.607 23.8742 105.728 22.9018 104.869 21.9875L101.954 24.7257ZM104.493 27.5357C105.466 28.6522 106.416 29.729 107.343 30.767L110.327 28.1026C109.411 27.0769 108.471 26.0119 107.507 24.9067L104.493 27.5357ZM112.897 36.8142C114.965 38.9962 116.902 40.9541 118.719 42.7016L121.492 39.819C119.726 38.1205 117.833 36.2071 115.8 34.0626L112.897 36.8142ZM124.955 48.2719C127.566 50.395 129.9 51.9888 132.003 53.0893L133.858 49.5454C132.066 48.6076 129.958 47.1851 127.479 45.1686L124.955 48.2719ZM141.407 54.5127C144.513 53.3599 146.331 50.4123 147.566 47.1929L143.832 45.7602C142.697 48.7163 141.435 50.2355 140.015 50.7625L141.407 54.5127ZM149.825 38.9752C150.366 36.433 150.889 33.6344 151.442 30.9187L147.523 30.1202C146.946 32.9494 146.454 35.5993 145.912 38.1418L149.825 38.9752ZM153.273 23.0623C154 20.4352 154.851 17.9277 155.903 15.6427L152.269 13.9699C151.1 16.5107 150.181 19.2361 149.418 21.9959L153.273 23.0623ZM159.975 9.30332C161.611 7.52567 163.554 6.1242 165.915 5.20985L164.47 1.47987C161.486 2.63579 159.042 4.40975 157.031 6.59483L159.975 9.30332ZM173.193 4.00122C175.429 4.02111 177.947 4.33159 180.786 4.99779L181.7 1.10359C178.621 0.381107 175.807 0.0243073 173.229 0.00138092L173.193 4.00122ZM188.34 7.35261C190.632 8.22331 193.08 9.2787 195.693 10.5362L197.427 6.93177C194.724 5.63079 192.171 4.529 189.76 3.6132L188.34 7.35261ZM202.826 14.2489C204.016 14.9118 205.235 15.6108 206.484 16.347L208.516 12.9011C207.24 12.149 205.992 11.4337 204.772 10.7542L202.826 14.2489Z" fill="white"/>
</svg>
