<svg width="169" height="132" viewBox="0 0 169 132" fill="none" xmlns="http://www.w3.org/2000/svg">
<path d="M129.06 121C129.06 126.891 133.836 131.667 139.727 131.667C145.618 131.667 150.394 126.891 150.394 121C150.394 115.109 145.618 110.333 139.727 110.333C133.836 110.333 129.06 115.109 129.06 121ZM157.655 44.0491L156.617 42.3394L157.655 44.0491ZM0.717702 12.9652C-0.129963 13.6734 -0.243026 14.9346 0.465167 15.7823L12.0059 29.5958C12.714 30.4435 13.9753 30.5565 14.823 29.8483C15.6706 29.1401 15.7837 27.8789 15.0755 27.0312L4.81713 14.7525L17.0958 4.49415C17.9435 3.78595 18.0565 2.52468 17.3483 1.67702C16.6401 0.829353 15.3789 0.71629 14.5312 1.42448L0.717702 12.9652ZM1.82143 16.492C3.15423 16.6115 4.51422 16.7274 5.89932 16.84L6.22341 12.8531C4.84841 12.7413 3.49948 12.6264 2.17857 12.508L1.82143 16.492ZM14.164 17.456C16.8456 17.64 19.5981 17.8152 22.4092 17.9835L22.6483 13.9907C19.8468 13.8229 17.106 13.6485 14.4378 13.4654L14.164 17.456ZM30.6363 18.4498C33.3429 18.5956 36.0905 18.737 38.8693 18.8756L39.0685 14.8806C36.2939 14.7422 33.5517 14.601 30.8515 14.4556L30.6363 18.4498ZM47.1037 19.2754C49.8309 19.405 52.5785 19.5332 55.3376 19.6615L55.5234 15.6659C52.7647 15.5375 50.0186 15.4094 47.2935 15.2799L47.1037 19.2754ZM63.5696 20.0447C66.3127 20.1731 69.0586 20.3028 71.7991 20.4352L71.9922 16.4399C69.2489 16.3073 66.5008 16.1775 63.7566 16.0491L63.5696 20.0447ZM80.0253 20.8432C82.783 20.9842 85.5264 21.1292 88.2468 21.2796L88.4677 17.2857C85.7408 17.1349 82.9918 16.9896 80.2294 16.8484L80.0253 20.8432ZM96.4618 21.7566C99.2347 21.9261 101.973 22.103 104.666 22.2887L104.942 18.2982C102.236 18.1116 99.4877 17.9341 96.7059 17.7641L96.4618 21.7566ZM112.854 22.8937C115.646 23.1152 118.375 23.3489 121.027 23.5965L121.399 19.6138C118.726 19.3643 115.979 19.1291 113.17 18.9062L112.854 22.8937ZM129.213 24.4356C132.045 24.7551 134.759 25.0952 137.336 25.4585L137.894 21.4977C135.275 21.1284 132.525 20.7838 129.662 20.4608L129.213 24.4356ZM145.368 26.7549C148.277 27.2951 150.912 27.8768 153.237 28.504L154.279 24.642C151.826 23.9803 149.083 23.3764 146.099 22.8221L145.368 26.7549ZM160.602 31.1614C163.848 32.8277 164.35 34.1994 164.19 35.1408L168.134 35.8108C168.775 32.0342 165.903 29.3864 162.428 27.6029L160.602 31.1614ZM159.901 40.1492C158.968 40.8446 157.877 41.5746 156.617 42.3394L158.692 45.7588C160.039 44.9411 161.238 44.1411 162.291 43.3567L159.901 40.1492ZM156.617 42.3394C155.377 43.0921 154.18 43.8257 153.025 44.5407L155.131 47.9415C156.275 47.233 157.462 46.5057 158.692 45.7588L156.617 42.3394ZM146.182 48.8808C143.691 50.5041 141.453 52.0176 139.451 53.431L141.757 56.6989C143.712 55.3187 145.908 53.8332 148.366 52.2321L146.182 48.8808ZM132.966 58.317C130.253 60.537 128.235 62.4927 126.846 64.2473L129.982 66.7301C131.123 65.2898 132.899 63.5401 135.499 61.4128L132.966 58.317ZM126.056 74.0402C127.001 75.0306 128.251 75.8012 129.56 76.4431C130.883 77.0921 132.394 77.6699 133.95 78.2214L135.287 74.4514C133.768 73.9127 132.432 73.3965 131.321 72.8518C130.196 72.3 129.425 71.7771 128.95 71.2787L126.056 74.0402ZM141.505 80.896C144.007 81.8786 146.317 82.9842 148.194 84.3625L150.562 81.1387C148.279 79.4619 145.6 78.2071 142.967 77.1728L141.505 80.896ZM152.302 89.661C152.884 91.4431 153.006 93.6799 152.317 96.5594L156.207 97.4905C157.034 94.0355 156.957 91.0319 156.105 88.4203L152.302 89.661ZM149.568 103.57C148.521 105.587 147.19 107.793 145.534 110.208L148.832 112.47C150.564 109.945 151.983 107.598 153.118 105.413L149.568 103.57ZM140.819 116.53C139.996 117.559 139.124 118.618 138.201 119.707L141.253 122.293C142.199 121.176 143.094 120.089 143.942 119.029L140.819 116.53Z" fill="white"/>
</svg>
