<svg width="105" height="188" viewBox="0 0 105 188" fill="none" xmlns="http://www.w3.org/2000/svg">
<path d="M59.8334 176.757C59.8334 182.648 64.609 187.423 70.5001 187.423C76.3911 187.423 81.1667 182.648 81.1667 176.757C81.1667 170.866 76.3911 166.09 70.5001 166.09C64.609 166.09 59.8334 170.866 59.8334 176.757ZM88.5001 65.7566L87.1855 64.2493L88.5001 65.7566ZM1.27807 12.1733C0.403657 12.8482 0.241905 14.1042 0.91679 14.9786L11.9147 29.228C12.5896 30.1024 13.8455 30.2642 14.7199 29.5893C15.5944 28.9144 15.7561 27.6585 15.0812 26.784L5.30532 14.1179L17.9715 4.34198C18.8459 3.66709 19.0077 2.41113 18.3328 1.53672C17.6579 0.6623 16.4019 0.500548 15.5275 1.17543L1.27807 12.1733ZM2.2446 15.7402C3.49784 15.9016 4.75013 16.0619 6.00068 16.2212L6.50625 12.2533C5.25712 12.0941 4.00666 11.9341 2.75553 11.773L2.2446 15.7402ZM13.5053 17.1718C16.0201 17.4893 18.5213 17.8051 21.0042 18.1213L21.5095 14.1533C19.0241 13.8368 16.5207 13.5208 14.0064 13.2033L13.5053 17.1718ZM28.5056 19.0879C31.0306 19.4182 33.5284 19.751 35.9928 20.0887L36.5358 16.1257C34.0616 15.7867 31.5555 15.4528 29.0245 15.1217L28.5056 19.0879ZM43.4548 21.1441C45.989 21.5152 48.4773 21.8944 50.9119 22.2841L51.5442 18.3344C49.0894 17.9414 46.5835 17.5596 44.0345 17.1863L43.4548 21.1441ZM58.3375 23.5398C60.8717 23.9939 63.3304 24.4639 65.7039 24.9532L66.5115 21.0355C64.0995 20.5383 61.6063 20.0618 59.0431 19.6025L58.3375 23.5398ZM73.0211 26.5951C75.5592 27.2177 77.9625 27.8703 80.2161 28.558L81.3836 24.7322C79.0476 24.0193 76.5716 23.3474 73.974 22.7103L73.0211 26.5951ZM87.1816 30.9989C89.6555 32.0042 91.822 33.0685 93.6605 34.1974L95.7536 30.7888C93.684 29.518 91.311 28.3593 88.6875 27.2932L87.1816 30.9989ZM98.8522 38.5927C100.234 40.3687 100.916 42.2504 100.903 44.3225L104.903 44.3477C104.922 41.2813 103.881 38.5418 102.009 36.1365L98.8522 38.5927ZM99.0959 50.5839C98.1549 52.3712 96.8225 54.3143 95.043 56.423L98.1 59.0027C100.02 56.7279 101.53 54.5463 102.635 52.4473L99.0959 50.5839ZM89.9722 61.7253C89.1001 62.548 88.1718 63.3892 87.1855 64.2493L89.8146 67.2639C90.8372 66.3721 91.8044 65.4959 92.717 64.635L89.9722 61.7253ZM87.1855 64.2493C86.1356 65.1649 85.1166 66.0609 84.1278 66.9377L86.7817 69.9305C87.7619 69.0613 88.7726 68.1726 89.8146 67.2639L87.1855 64.2493ZM78.3757 72.1358C76.3351 74.0188 74.453 75.8027 72.7206 77.494L75.5149 80.3561C77.2173 78.6941 79.072 76.9361 81.0883 75.0754L78.3757 72.1358ZM67.1859 83.1194C65.1533 85.2854 63.4119 87.2775 61.9373 89.1155L65.0574 91.6186C66.4546 89.8769 68.1256 87.9636 70.1028 85.8566L67.1859 83.1194ZM57.3607 95.771C55.6079 98.9675 54.8477 101.775 55.1462 104.309L59.1187 103.841C58.9553 102.454 59.3253 100.508 60.868 97.6942L57.3607 95.771ZM60.4435 111.817C62.5136 113.205 65.0555 114.416 67.5228 115.628L69.2858 112.037C66.7086 110.772 64.463 109.696 62.6709 108.495L60.4435 111.817ZM74.1448 119.233C76.1879 120.553 78.0432 122.055 79.5581 123.882L82.6374 121.329C80.7872 119.098 78.5851 117.339 76.3151 115.873L74.1448 119.233ZM82.7974 129.99C83.3808 131.986 83.69 134.314 83.6083 137.057L87.6065 137.176C87.6994 134.061 87.3506 131.311 86.6369 128.868L82.7974 129.99ZM82.6382 144.315C82.1448 146.53 81.4524 148.94 80.5312 151.564L84.3053 152.889C85.2721 150.135 86.0106 147.573 86.5425 145.185L82.6382 144.315ZM77.7024 158.655C76.7401 160.829 75.6455 163.123 74.4083 165.544L77.9699 167.364C79.238 164.884 80.3651 162.522 81.3604 160.273L77.7024 158.655ZM70.7801 172.273C70.1403 173.405 69.4729 174.561 68.7771 175.741L72.223 177.772C72.9306 176.572 73.6101 175.395 74.2621 174.242L70.7801 172.273Z" fill="white"/>
</svg>
