<svg width="9" height="10" viewBox="0 0 9 10" fill="none" xmlns="http://www.w3.org/2000/svg">
<path d="M2.9576 4.83699H2.07813V5.71646H2.9576V4.83699ZM4.71653 4.83699H3.83707V5.71646H4.71653V4.83699ZM6.47547 4.83699H5.596V5.71646H6.47547V4.83699ZM7.35493 1.75886H6.9152V0.879395H6.03573V1.75886H2.51787V0.879395H1.6384V1.75886H1.19867C0.710561 1.75886 0.323596 2.15462 0.323596 2.63833L0.319199 8.79459C0.319199 9.2783 0.710561 9.67406 1.19867 9.67406H7.35493C7.83864 9.67406 8.2344 9.2783 8.2344 8.79459V2.63833C8.2344 2.15462 7.83864 1.75886 7.35493 1.75886ZM7.35493 8.79459H1.19867V3.95753H7.35493V8.79459Z" fill="#B4B4B4"/>
</svg>
