<svg width="11" height="11" viewBox="0 0 11 11" fill="none" xmlns="http://www.w3.org/2000/svg">
<g clip-path="url(#clip0_57_361)">
<path d="M4.69479 7.68223C4.69479 8.15171 4.31067 8.53583 3.84119 8.53583C3.37171 8.53583 2.98759 8.15171 2.98759 7.68223C2.98759 7.21275 3.37171 6.82863 3.84119 6.82863C4.31067 6.82863 4.69479 7.21275 4.69479 7.68223ZM3.84119 4.26783C3.37171 4.26783 2.98759 4.65195 2.98759 5.12143C2.98759 5.59091 3.37171 5.97503 3.84119 5.97503C4.31067 5.97503 4.69479 5.59091 4.69479 5.12143C4.69479 4.65195 4.31067 4.26783 3.84119 4.26783ZM3.84119 1.70703C3.37171 1.70703 2.98759 2.09115 2.98759 2.56063C2.98759 3.03011 3.37171 3.41423 3.84119 3.41423C4.31067 3.41423 4.69479 3.03011 4.69479 2.56063C4.69479 2.09115 4.31067 1.70703 3.84119 1.70703ZM6.40199 3.41423C6.87147 3.41423 7.25559 3.03011 7.25559 2.56063C7.25559 2.09115 6.87147 1.70703 6.40199 1.70703C5.93251 1.70703 5.54839 2.09115 5.54839 2.56063C5.54839 3.03011 5.93251 3.41423 6.40199 3.41423ZM6.40199 4.26783C5.93251 4.26783 5.54839 4.65195 5.54839 5.12143C5.54839 5.59091 5.93251 5.97503 6.40199 5.97503C6.87147 5.97503 7.25559 5.59091 7.25559 5.12143C7.25559 4.65195 6.87147 4.26783 6.40199 4.26783ZM6.40199 6.82863C5.93251 6.82863 5.54839 7.21275 5.54839 7.68223C5.54839 8.15171 5.93251 8.53583 6.40199 8.53583C6.87147 8.53583 7.25559 8.15171 7.25559 7.68223C7.25559 7.21275 6.87147 6.82863 6.40199 6.82863Z" fill="#BFBFBF"/>
</g>
<defs>
<clipPath id="clip0_57_361">
<rect width="10.2432" height="10.2432" fill="white"/>
</clipPath>
</defs>
</svg>
