<svg width="100" height="92" viewBox="0 0 100 92" fill="none" xmlns="http://www.w3.org/2000/svg">
<path d="M58.921 0.296389C59.1322 1.79415 59.6873 2.89406 60.4065 3.23733C60.7272 3.38553 61.6419 3.39324 62.0719 3.24504C62.3456 3.14372 62.4003 3.14372 62.5019 3.24504C62.7053 3.44794 62.7131 3.62734 62.5254 4.16555L62.3378 4.68822L62.5176 5.59307C63.0023 7.96446 63.19 10.2033 62.9554 10.8585C62.893 11.0221 62.8226 11.1544 62.7913 11.1544C62.6662 11.1544 60.7272 9.49343 60.0235 8.79136C59.1635 7.92543 59.0149 7.65241 58.2877 5.71006C57.7795 4.36833 57.7404 4.29038 57.545 4.29038C57.2244 4.29038 56.7396 3.61951 56.6692 3.07347C56.591 2.47285 56.1767 1.73958 55.7545 1.44318C55.4262 1.20907 55.4105 1.20907 54.1204 1.16232C53.0883 1.13112 52.76 1.09209 52.5567 0.982929C52.4081 0.90485 52.2674 0.865936 52.244 0.897014C52.1658 0.967259 52.5254 2.10622 52.8147 2.6913C53.2682 3.61951 53.8937 4.2046 54.5738 4.32159C54.9258 4.384 55.6685 4.25134 56.1688 4.0329L56.5521 3.86916L56.724 4.0876C56.8256 4.21229 56.9351 4.42303 56.9742 4.55556C57.029 4.7428 57.0915 4.79738 57.2322 4.79738C57.3964 4.79738 57.4668 4.89882 57.7639 5.55402C58.3346 6.84117 58.2251 7.27023 57.3573 7.08299C57.0133 7.01275 56.9664 7.02058 56.81 7.17661L56.6458 7.34818L56.8647 7.30927C57.1227 7.27023 57.7013 7.39505 57.7013 7.4965C57.7013 7.53541 57.67 7.56662 57.6309 7.56662C57.5997 7.56662 57.4277 7.66024 57.2635 7.77723C57.0368 7.93326 56.8178 8.00351 56.3878 8.04255C55.3949 8.14387 54.6912 8.61196 54.4878 9.29066C54.4488 9.43886 54.3863 9.93032 54.3394 10.3904C54.2846 11.0298 54.2221 11.3188 54.0656 11.6231L53.8624 12.0212L54.1595 11.9737C55.5903 11.74 56.4739 11.374 56.9899 10.7961C57.4824 10.2345 57.5841 9.46223 57.2713 8.58859C57.1774 8.30773 57.1774 8.26869 57.3182 8.14386C57.3964 8.07375 57.6465 7.96446 57.8655 7.90989L58.2642 7.80843L58.9054 8.37014C59.2494 8.67437 59.6404 9.0098 59.7576 9.10342L59.9765 9.27498L59.8201 9.58705L59.656 9.8991L59.8201 9.9926C59.914 10.0395 60.1017 10.055 60.2346 10.0316C60.5082 9.97706 60.563 10.0316 62.1814 11.9583L62.6271 12.481V13.082C62.6271 13.4095 62.4706 15.102 62.2753 16.8421C61.7514 21.6001 61.7592 21.5615 61.8451 23.9091C61.9312 26.1551 61.853 29.0497 61.6497 30.7577C61.5168 31.8891 61.2901 33.231 61.2276 33.231C61.1494 33.231 57.0524 28.8699 56.8882 28.6208C56.7553 28.4102 56.7553 28.3318 56.8413 27.474C56.896 26.9744 56.9273 26.2103 56.9117 25.7814C56.8804 25.0173 56.8726 24.9698 56.5051 24.2751C56.3018 23.8782 56.1532 23.5187 56.1767 23.4801C56.2783 23.3158 56.2236 22.2473 56.0906 21.8813C55.8249 21.0851 55.4574 20.8116 54.2612 20.5162C53.4323 20.3133 53.19 20.2273 52.893 20.009C52.4159 19.6661 52.4394 19.6186 52.4785 20.7576C52.5254 21.9507 52.6896 22.5748 53.1274 23.1758C53.5418 23.7537 53.9483 23.9091 55.0429 23.9091L55.9422 23.9168L56.036 24.2211C56.0828 24.3932 56.1297 24.6192 56.1297 24.7207C56.1376 24.8221 56.1923 24.9467 56.2549 24.9929C56.3487 25.0635 56.3722 25.3127 56.3878 26.2257C56.4113 27.3096 56.4035 27.3725 56.2392 27.5523C56.1376 27.6538 56.0204 27.849 55.9735 27.989C55.8874 28.2304 55.9031 28.2612 56.6614 29.1897C58.7881 31.803 60.3518 34.1441 60.6803 35.1728C60.7974 35.5631 60.8053 35.7429 60.7506 36.3979C60.7115 36.8268 60.5551 38.6439 60.3987 40.447C60.2424 42.2487 60.1017 43.7692 60.086 43.8244C60.0547 43.9027 59.9218 43.8629 59.5778 43.6754C59.2337 43.4969 59.0462 43.3325 58.8663 43.0513C58.5927 42.6147 58.2955 42.3578 58.0845 42.3578C57.9594 42.3578 57.9515 42.3887 58.0141 42.553C58.0532 42.6545 58.061 42.7559 58.0219 42.779C57.8577 42.8882 57.24 42.833 56.9195 42.6776C56.4973 42.4824 55.5433 42.4516 55.215 42.6224C54.8945 42.7868 54.5817 43.1528 54.1751 43.8244C53.964 44.1827 53.6826 44.5179 53.4949 44.6591C53.323 44.7837 53.1744 44.916 53.1744 44.9481C53.1665 45.0251 54.136 45.2986 54.785 45.4001C55.3949 45.4938 56.0282 45.4232 56.4426 45.2126C56.9117 44.9712 57.2635 44.3933 57.4199 43.6061C57.5215 43.1373 57.6154 43.0757 58.1392 43.1694C58.3581 43.2157 58.4519 43.3094 58.7568 43.809C59.1947 44.5268 59.3432 44.8851 59.3432 45.1895C59.3432 45.3141 59.1165 46.2117 58.8428 47.1864C57.7326 51.0942 57.3182 52.8805 57.1149 54.6823C56.9508 56.204 56.6301 58.2947 56.4895 58.7943C56.4269 59.0126 56.3722 59.4094 56.3722 59.6752C56.3722 60.0412 56.3096 60.2994 56.0906 60.8297C55.7232 61.7107 54.3081 64.5346 54.0187 64.9481C53.7686 65.3154 53.2448 65.7598 53.0727 65.7598C52.8148 65.7598 52.6974 65.4862 52.6974 64.925V64.3793L52.2518 64.2547C51.7201 64.1057 51.3447 63.8874 51.1806 63.6383C51.1024 63.5214 50.993 62.8344 50.8678 61.703C50.6568 59.8859 50.3596 57.975 50.1486 57.1402C49.9687 56.4224 49.6169 55.8689 48.749 54.9083C47.9828 54.0659 47.9594 54.0427 47.6778 54.0826C47.4121 54.1211 47.373 54.098 47.0055 53.6369C45.5746 51.875 44.7146 49.5185 44.48 46.7254C44.4097 45.9151 44.4097 45.2832 44.4878 43.9567C44.5426 43.0128 44.5817 42.0304 44.5739 41.7799C44.5582 41.1096 44.7615 40.8206 46.4347 39.1204C47.24 38.3011 48.1236 37.3726 48.3972 37.0528C49.7186 35.5169 50.9538 34.2135 51.1885 34.1197C51.3369 34.0504 51.7358 34.0106 52.158 34.0106C52.7365 34.0106 52.9085 34.0427 53.0336 34.1441C53.1431 34.2456 53.323 34.2841 53.706 34.2918C53.9874 34.2918 54.3941 34.338 54.5973 34.3932C55.1212 34.5332 55.6137 34.4472 55.9344 34.1672C56.075 34.0427 56.3409 33.66 56.5286 33.3094C56.7162 32.9575 56.9664 32.5915 57.0915 32.4901C57.2087 32.3886 57.3104 32.2872 57.3104 32.264C57.3104 32.1857 56.208 31.9828 55.7858 31.9828C55.1133 31.9828 54.6755 32.1228 54.3785 32.4271C54.0891 32.7238 53.8703 33.2619 53.8703 33.6754C53.8703 33.9797 53.7373 34.0183 53.6669 33.7383C53.6278 33.5739 53.5887 33.5508 53.448 33.5893C52.1814 33.9951 51.6028 33.9168 51.6028 33.3479C51.6028 33.0821 51.9624 32.1857 52.7287 30.524C53.0023 29.923 53.1665 29.4632 53.1665 29.2834C53.1665 28.8468 53.3933 28.6054 53.9562 28.4333C54.3394 28.3241 54.5426 28.1996 54.8554 27.8952C55.3558 27.4034 55.4183 27.1619 55.2776 26.1551C55.1837 25.4848 55.1994 25.0173 55.3245 24.6976C55.3714 24.5794 55.3245 24.5871 54.9727 24.7284C53.9718 25.1188 53.1509 25.7031 52.893 26.2103C52.6427 26.7099 52.7365 27.5831 53.0883 28.0827C53.1744 28.2073 53.2447 28.3395 53.2447 28.3871C53.2447 28.441 53.0727 28.59 52.8617 28.7145C52.6271 28.8622 52.4863 28.9945 52.5176 29.0574C52.5801 29.2295 52.158 30.4931 51.7827 31.2341C51.2901 32.2088 50.5942 33.2542 49.6795 34.401C49.2494 34.939 48.7021 35.6723 48.4676 36.0396C47.8577 36.9668 46.0828 38.5425 45.5433 38.6285C45.4027 38.6529 45.3871 38.6131 45.4027 38.2073C45.4183 37.763 45.9109 35.7429 46.2236 34.8376C46.3174 34.5563 46.4738 34.2995 46.6067 34.1903C46.7318 34.0812 46.943 33.7768 47.0759 33.5033C47.3964 32.8406 47.3573 32.4901 46.8726 31.803C46.4113 31.1635 46.2158 30.7975 46.1454 30.4456L46.0828 30.158L45.6841 30.6562C44.5582 32.0457 44.4097 33.0359 45.2072 33.8475C45.3949 34.035 45.6372 34.2289 45.7623 34.2918C46.0204 34.4241 46.0204 34.4716 45.8014 34.8928C45.7076 35.0713 45.6215 35.2742 45.6137 35.3371C45.6059 35.4848 44.6755 38.5515 44.5113 38.9804C44.441 39.1666 44.3628 39.3156 44.3237 39.3156C44.2377 39.3156 44.1204 38.8944 44.0265 38.2625C43.9796 37.9582 43.7451 36.9989 43.5105 36.1166C42.9319 33.9874 42.6427 32.8406 42.541 32.178C42.4863 31.8736 42.2362 30.9298 41.9859 30.0719C41.2901 27.7308 41.2589 27.5523 41.3604 26.8422C41.4151 26.5147 41.5872 25.8354 41.7514 25.3371C41.9233 24.8375 42.1345 24.0105 42.2283 23.5033C42.369 22.7546 42.455 22.4887 42.6974 22.0765C42.9163 21.7092 43.0571 21.3111 43.2213 20.6099C43.409 19.8369 43.4949 19.6031 43.6747 19.4079C43.9328 19.1434 44.4332 18.8313 44.7303 18.7607C44.9023 18.7222 44.9492 18.7453 45.0351 18.9482C45.1133 19.1434 45.1133 19.2911 45.0351 19.6969C44.8319 20.7885 45.1837 21.4126 46.2392 21.803C46.9039 22.0444 47.4277 22.3411 47.5294 22.5285C47.6778 22.7931 47.7326 22.5131 47.7326 21.5063C47.7326 20.5316 47.7169 20.4533 47.5137 20.0244C47.2087 19.4079 46.81 19.1742 45.9735 19.1267C45.2932 19.0882 45.2697 19.0651 45.2697 18.4641C45.2697 18.3087 45.2463 18.1751 45.2228 18.1751C45.1994 18.1751 45.0664 18.2612 44.9336 18.3626C44.6442 18.5732 44.0656 18.8776 43.9406 18.8776C43.7295 18.8776 44.3315 17.637 44.699 17.3173C44.9414 17.099 45.0117 17.0836 45.559 17.0836C46.2471 17.0836 46.7318 16.8961 46.9899 16.5378C47.0759 16.4132 47.24 15.9522 47.3495 15.5155C47.459 15.0789 47.6154 14.6179 47.7013 14.501C47.7795 14.3842 47.8499 14.2673 47.8499 14.2288C47.8499 14.1119 46.4035 14.2596 45.9344 14.4394C45.0273 14.7746 44.6129 15.5078 44.785 16.4594C44.871 16.9038 44.8319 16.9513 44.3081 17.045C44.0031 17.1067 43.964 17.1542 44.1126 17.3019C44.2142 17.4033 44.0265 17.8708 43.534 18.7222C43.3777 19.0021 43.0649 19.7046 42.846 20.2812C42.6192 20.8591 42.3846 21.3663 42.3222 21.4049C41.9937 21.5924 41.9312 21.7323 41.8921 22.4733C41.853 23.0743 41.7905 23.3312 41.5715 23.8705C41.423 24.2365 41.2588 24.6886 41.2041 24.8838C41.0477 25.5002 40.8835 25.9766 40.8209 25.9766C40.7896 25.9766 40.5004 25.391 40.1877 24.6654C39.4292 22.9498 39.0305 22.1458 38.6396 21.5371C38.3346 21.0774 38.3112 20.9991 38.3112 20.5085V19.9781L37.9124 19.7046C37.4199 19.3771 36.9351 18.8313 36.2705 17.8631C35.9891 17.4585 35.4809 16.7638 35.1368 16.3272C34.6599 15.7184 34.4567 15.3679 34.2221 14.7823C33.9015 13.9784 33.6513 13.0897 33.5809 12.4964L33.534 12.1304L34.0265 11.74C34.4488 11.4048 34.5973 11.3342 35.0586 11.2559C35.6528 11.1544 36.3956 10.8195 36.8413 10.4529C36.9977 10.3203 37.2244 10.0161 37.3495 9.76645C37.5685 9.32186 37.5685 9.31403 37.5685 7.80073C37.5685 6.38876 37.5841 6.2561 37.7482 5.89729C37.8421 5.68668 37.9124 5.49944 37.8968 5.49161C37.8812 5.47607 37.545 5.55403 37.1462 5.65548C35.5355 6.09236 34.183 6.94263 33.7138 7.83194C33.3386 8.54171 33.4558 9.93031 33.9483 10.7494L34.1047 11.0067L33.925 11.2096C33.7217 11.4202 33.3073 11.6463 32.9788 11.7323C32.7913 11.7708 32.7756 11.8029 32.8382 11.9583C32.9163 12.1689 33.0805 13.6663 33.0258 13.7215C32.9554 13.7999 31.7827 13.5109 31.1572 13.2695C30.649 13.0743 30.43 12.9253 29.9922 12.5041C29.4527 11.9968 29.4449 11.9737 29.4136 11.5294C29.3901 11.1942 29.4214 10.9834 29.5387 10.7025C29.7497 10.211 29.828 9.4856 29.7108 9.06438C29.5856 8.58859 29.1947 8.19074 28.2877 7.6447C27.7326 7.30144 27.4355 7.05962 27.2635 6.80997L27.0133 6.459L26.9195 6.70082C26.8647 6.82564 26.7474 7.22348 26.6536 7.57445C26.4504 8.34677 26.466 9.62609 26.6771 10.0238C27.0055 10.6246 27.8108 11.1313 28.5771 11.2096C28.9445 11.2482 28.9992 11.2726 29.0305 11.4588C29.054 11.5679 29.0383 11.8183 29.0071 12.0135C28.9679 12.2075 28.9367 12.3872 28.9289 12.4104C28.9289 12.4348 29.0149 12.4425 29.1087 12.4271C29.2415 12.4027 29.5778 12.5747 30.3362 13.0666C31.6654 13.9321 32.6505 14.4779 32.9788 14.5485C33.3151 14.6179 33.6591 15.0866 34.05 16.0228C34.4176 16.8883 34.6364 17.2865 35.129 17.9183C35.3323 18.1905 35.4809 18.4101 35.4574 18.4101C35.3636 18.4101 34.7459 18.0737 34.4956 17.8875C34.3628 17.786 34.1908 17.5985 34.1282 17.4816C34.0656 17.3481 33.9328 17.2389 33.8155 17.2235C33.5965 17.1773 33.5653 17.271 33.7138 17.5908C33.7921 17.7616 33.7842 17.8091 33.6904 17.8708C33.5574 17.9568 32.9241 17.8875 32.4941 17.7385C32.2831 17.6602 32.158 17.6525 32.1032 17.7077C32.0641 17.7462 31.939 17.786 31.8374 17.786C31.7358 17.786 31.4777 17.9106 31.2745 18.0582C31.0321 18.238 30.8131 18.3318 30.6412 18.3318C30.2814 18.3395 29.8436 18.5026 29.5153 18.753C29.0305 19.119 28.9758 19.2757 28.921 20.3518C28.8897 20.9914 28.8272 21.4447 28.7412 21.6386C28.6709 21.8107 28.624 21.9507 28.6318 21.9661C28.6864 22.0059 29.8514 21.6707 30.2268 21.4986C30.7819 21.2418 31.3136 20.7422 31.4777 20.3133C31.6263 19.9229 31.5872 19.3142 31.3838 18.7992C31.2354 18.4255 31.298 18.3087 31.728 18.1674C32.0641 18.0583 33.19 18.1212 33.9172 18.292C34.441 18.4178 36.4426 19.3065 36.8491 19.5954C37.4512 20.0244 38.3815 22.7623 39.9531 28.7376C40.6881 31.5385 40.9851 32.7623 40.9147 32.7623C40.8131 32.7623 38.0454 31.4678 37.5606 31.1943C37.0368 30.8989 36.9899 30.8437 36.5442 30.0873C36.294 29.6584 35.8874 29.0882 35.6528 28.8314C35.215 28.3549 35.2228 28.3627 33.4168 27.5369C32.9163 27.3019 32.893 27.2788 33.0649 27.2171C33.1744 27.1773 33.4558 27.1619 33.6904 27.1928C34.4488 27.2788 35.129 26.9976 35.3871 26.507C35.4574 26.3734 35.5903 25.992 35.6919 25.6568C35.7858 25.3127 35.9578 24.9159 36.075 24.7746C36.1845 24.6269 36.2783 24.478 36.2783 24.4471C36.2783 24.4163 35.9031 24.4163 35.4418 24.4394C34.3941 24.4857 33.8312 24.6809 33.4401 25.1188C33.1509 25.4295 33.0883 25.6491 33.0492 26.5224L33.0336 26.9513L32.7209 27.0143C32.5489 27.0528 32.33 27.099 32.2362 27.1157C31.9624 27.1696 32.0172 27.2557 32.3924 27.3648C33.0571 27.5754 34.6364 28.4102 34.9727 28.7376C35.3088 29.0651 36.2783 30.4456 36.2783 30.5946C36.2783 30.7037 36.0204 30.6562 34.4097 30.2748C32.6505 29.8536 31.6732 29.5338 31.3369 29.2526C31.1494 29.0959 30.8835 28.6747 30.5004 27.9337C30.1955 27.334 29.8201 26.7022 29.6717 26.5224C29.5231 26.3426 29.398 26.1718 29.398 26.132C29.398 26.0074 29.6091 25.9137 30.0469 25.8675C30.8444 25.7814 31.4621 25.4295 31.7045 24.9236C31.7905 24.7361 31.8608 24.3149 31.8921 23.7614C31.939 23.1129 32.0015 22.8098 32.1267 22.5594L32.2987 22.2242L32.1188 22.2627C32.0172 22.2871 31.7592 22.3411 31.5403 22.3796C30.5395 22.5748 29.6717 23.0589 29.3588 23.5893C29.2026 23.8628 29.1635 24.0259 29.1635 24.4625C29.1713 24.7592 29.2181 25.1419 29.2806 25.3127C29.4292 25.7262 29.4371 25.7185 29.1556 25.8675C28.9679 25.9612 28.8037 25.9766 28.4285 25.9368C28.0063 25.8906 27.9046 25.8354 27.5919 25.5477C27.1853 25.165 26.6614 24.8838 26.0438 24.6976C25.0664 24.4086 24.4097 24.6115 23.4168 25.4925C22.244 26.5378 21.9546 26.7484 21.4386 26.9205L20.946 27.0836L21.2041 27.2788C21.7671 27.7 22.9085 28.3241 23.534 28.5656C24.1204 28.7839 24.2924 28.816 25.0195 28.816C26.0047 28.8237 26.3018 28.6991 26.9821 27.9967C27.3729 27.5909 27.9124 26.6945 27.9124 26.4441C27.9124 26.2026 29.0305 26.5455 29.3276 26.8807C29.5309 27.1067 30.1955 28.4718 30.2971 28.8622C30.3674 29.1357 30.4535 29.2603 30.6959 29.4247C31.3447 29.8613 34.4488 30.9375 35.6919 31.1635C36.81 31.3664 36.8491 31.3818 37.029 31.6707C37.3182 32.1305 37.5841 32.3411 38.0923 32.5286C38.8428 32.8021 39.4762 33.1527 39.6482 33.4018C39.7342 33.52 40.0469 33.7614 40.344 33.9335C41.3369 34.5101 41.5324 34.9865 41.3682 36.421L41.2667 37.2557L41.509 37.7399C41.9233 38.5669 41.9859 38.9881 42.0641 41.5C42.1814 45.2832 42.4394 49.5737 42.6192 50.587C42.7287 51.2586 42.9006 51.7659 43.1978 52.3039C43.534 52.9281 43.5887 53.1695 43.4323 53.4032C43.276 53.6447 43.19 53.6369 42.5801 53.3249C42.3065 53.1772 41.9233 53.0051 41.7358 52.9358C41.5481 52.8651 41.1728 52.6083 40.8913 52.3733C40.0782 51.6798 40.0938 51.6875 39.7732 51.875C39.5465 52.0073 39.4214 52.0304 39.1165 51.9919C38.6864 51.9289 37.6856 51.6875 36.2392 51.2894C35.6841 51.1417 34.9101 50.9774 34.5191 50.9388C34.0813 50.8836 33.7451 50.8053 33.62 50.7205C33.3073 50.5009 32.893 49.557 32.2205 47.5447C31.4621 45.2678 31.3213 44.7375 31.1572 43.5509C31.0868 43.0436 31.0164 42.6224 31.0008 42.5993C30.9226 42.5286 31.2197 42.1164 31.4308 42.006C31.7592 41.8352 32.1814 41.3985 32.369 41.0313C32.6192 40.5484 32.5723 40.0951 32.2049 39.2758C32.0094 38.8391 31.8686 38.4025 31.8451 38.1303L31.7983 37.6769L31.4777 37.9351C30.8913 38.3948 30.2736 39.0741 30.0704 39.4864C29.6717 40.2826 29.8749 41.1558 30.6099 41.7954L30.8913 42.0458L30.649 42.3964C30.516 42.5839 30.3753 42.7636 30.3283 42.7945C30.2814 42.8253 30.3049 42.8882 30.4065 42.9588C30.5317 43.0436 30.5708 43.1528 30.5708 43.434C30.5708 43.6369 30.6412 44.2148 30.735 44.7208C30.8287 45.228 30.8835 45.6646 30.86 45.6813C30.7974 45.743 30.2346 45.4861 30.0391 45.2986C29.9374 45.2049 29.781 44.9943 29.703 44.8376C29.6169 44.6745 29.3667 44.401 29.1322 44.2302C28.7881 43.9721 28.6864 43.8321 28.5536 43.4648C28.3346 42.8805 27.7013 42.1626 27.1696 41.9212C26.6536 41.6785 26.3096 41.6862 25.2072 41.9751C24.441 42.1703 24.1673 42.2089 23.6747 42.1858C23.3386 42.1626 23.0649 42.1703 23.0649 42.1858C23.0649 42.2089 23.2213 42.5132 23.4168 42.8574C24.1126 44.0889 24.9649 44.9558 25.7545 45.2126C26.4738 45.454 27.5137 45.1972 28.186 44.6039L28.5458 44.2841L28.835 44.5179C29.0071 44.6591 29.1635 44.8774 29.2259 45.0572C29.3041 45.3064 29.4058 45.4155 29.7732 45.6261C30.4926 46.055 31.3682 46.9989 31.7436 47.7707C32.2596 48.793 32.3535 49.9166 31.9781 50.5253C31.7201 50.9542 31.509 51.0403 30.4691 51.1096C29.4371 51.1803 29.2963 51.2111 28.5692 51.5155C27.9203 51.789 26.9195 51.8904 25.1759 51.8583L23.7295 51.8352L23.6356 51.1096C23.5887 50.7038 23.5262 50.307 23.5027 50.2133C23.4792 50.1041 23.5418 49.9628 23.7373 49.7445C24.3941 49.019 24.3863 48.6299 23.6826 47.7014C23.5262 47.4908 23.3621 47.2172 23.3386 47.0927C23.3073 46.9758 23.2526 46.8666 23.2213 46.8435C23.1353 46.7883 22.5801 47.4047 22.3378 47.826C22.2205 48.0212 22.1032 48.3409 22.0797 48.5438C22.0328 48.8405 22.0641 48.9573 22.2283 49.2373C22.3378 49.4248 22.5645 49.6585 22.7444 49.7677C23.0883 49.9783 23.1196 50.0887 22.9554 50.4008C22.9006 50.5176 22.8695 50.7115 22.8851 50.8297C22.9163 51.0236 22.7835 50.9067 21.9937 50.1118C21.4855 49.5892 20.9382 49.105 20.7974 49.0267C20.6177 48.9342 20.1564 48.8482 19.4527 48.7852C18.2251 48.6684 18.2095 48.6607 16.7005 47.7091L15.6841 47.0773L14.8632 47.0375L14.0344 46.9989L12.7053 46.2271C11.9781 45.7982 11.2823 45.4001 11.165 45.3295C11.0399 45.2601 10.946 45.1895 10.9538 45.1664C10.9538 45.142 11.2276 45.002 11.5481 44.8376C12.0563 44.5962 12.1814 44.5654 12.3456 44.636C12.455 44.6822 12.8695 44.7208 13.2526 44.7208C14.5973 44.7208 15.8796 44.1904 16.4113 43.4263C16.7474 42.9267 16.9273 42.4362 17.1618 41.3356C17.4903 39.7676 17.7482 39.105 18.2721 38.5348L18.5458 38.2227H17.5528C14.6599 38.2227 12.5332 39.0574 11.8062 40.4855C11.4308 41.211 11.2979 42.7392 11.5324 43.6061C11.595 43.8398 11.6497 44.0581 11.6497 44.0812C11.6497 44.1596 10.7819 44.5268 10.4535 44.5808C10.2424 44.6193 10.1095 44.6039 9.96872 44.5101C9.86705 44.4408 9.75756 44.3856 9.73423 44.3856C9.65603 44.3856 9.69513 44.7208 9.82795 45.1035L9.96872 45.4861L10.9069 45.9382C11.8529 46.3902 12.3924 46.7575 12.3065 46.8898C12.2362 47.0143 11.1181 46.9681 9.29628 46.7575L7.5215 46.5546L6.84128 46.2194C6.26271 45.9305 6.11415 45.8136 5.88741 45.4784C5.55122 44.9712 4.80063 44.4254 4.22987 44.2533C3.83112 44.1364 3.75294 44.1364 3.32291 44.2533C3.05708 44.3162 2.46286 44.5808 2.00156 44.8466C1.21188 45.2832 0.648949 45.4784 0.195462 45.4784C0.0860001 45.4784 0 45.5093 0 45.5401C0 45.5799 0.304923 45.9151 0.688038 46.2965C2.11885 47.7476 3.43237 48.278 4.44878 47.8182C4.97264 47.5768 5.51212 47.1466 5.82486 46.7254L6.10633 46.3363L6.39562 46.4608C6.552 46.5238 6.81782 46.71 6.98983 46.8667C7.1853 47.0541 7.30258 47.1235 7.32604 47.0542C7.34949 47.0066 7.49023 46.9604 7.63878 46.9604H7.91244L7.86553 47.311C7.82642 47.5216 7.84206 47.6616 7.88898 47.6616C8.06881 47.6616 8.22518 47.5524 8.29554 47.3739C8.35027 47.2172 8.405 47.1864 8.54574 47.2249C8.63956 47.2481 9.01487 47.3264 9.38231 47.397C9.74974 47.4677 10.0782 47.5524 10.1095 47.5845C10.1955 47.6539 8.63956 48.6761 8.4441 48.6761C8.22518 48.6761 7.92806 49.0036 7.65442 49.5493C7.45895 49.932 7.36513 50.0258 6.95856 50.2441C6.41126 50.533 5.79359 51.1649 5.48867 51.7492C5.31665 52.0766 5.27756 52.2487 5.28538 52.7329C5.28538 53.271 5.32447 53.4032 5.72322 54.3317C6.25488 55.5568 6.36435 55.9536 6.31744 56.5161C6.29397 56.8051 6.30962 56.9219 6.36435 56.8898C6.78655 56.6484 7.68569 55.8766 8.233 55.3064C9.14782 54.3548 9.4918 53.6613 9.49962 52.8189C9.49962 52.3271 9.46051 52.1473 9.28064 51.7813C8.99923 51.2111 8.56137 50.6268 8.1939 50.3301L7.90462 50.1041L8.13135 49.7137C8.25645 49.4954 8.47537 49.2373 8.6161 49.1358C8.74903 49.0344 9.02269 48.8084 9.21808 48.6222C9.71077 48.1611 10.0938 47.998 10.8287 47.9351C11.1728 47.912 11.7279 47.8183 12.0563 47.7322C12.7756 47.5524 13.1196 47.5447 13.6904 47.6937C14.3941 47.8799 14.9336 48.1072 15.6528 48.5207C16.4347 48.965 17.029 49.1358 18.7255 49.4248C19.3745 49.5339 20.0469 49.6906 20.2346 49.7766C20.6412 49.9706 20.9382 50.3301 21.6106 51.4448C21.8999 51.9135 22.2283 52.3977 22.3378 52.5146C22.7131 52.9037 22.9006 52.9281 25.5122 52.9204C26.8413 52.9114 27.8968 52.9281 27.8577 52.9666C27.6856 53.1143 23.9953 54.5115 23.6513 54.5577C23.4401 54.5808 23.0492 54.6206 22.7991 54.6437C22.541 54.6669 22.2987 54.7144 22.2518 54.7375C22.2127 54.7683 21.7983 54.7914 21.3369 54.7914C20.6099 54.7991 20.4691 54.8235 20.2736 54.9635C19.9531 55.2049 19.7419 55.5491 19.5153 56.2118C19.4058 56.5392 19.2259 56.9219 19.1165 57.0619L18.921 57.3277L19.3588 57.3817C20.1955 57.4831 21.2041 57.2648 21.6028 56.9065C21.9312 56.5945 22.0641 56.258 22.1188 55.6185L22.1658 55.0341L22.4003 55.0496C22.5332 55.065 22.971 55.0419 23.3777 54.9943C23.7842 54.9558 24.1282 54.9404 24.1438 54.9558C24.1595 54.9712 24.0813 55.1189 23.9718 55.2833C23.7295 55.6339 23.7295 55.6339 23.9172 55.8689C24.0031 55.9626 24.1751 56.1732 24.3003 56.3209C24.4645 56.5161 24.5426 56.7113 24.5738 56.999C24.6364 57.5139 24.8476 57.9981 25.1681 58.3718C25.52 58.7622 25.9969 58.8944 27.0681 58.8944C27.6622 58.8944 27.9985 58.9343 28.2251 59.0203C28.405 59.0896 28.5614 59.1295 28.5849 59.114C28.6396 59.0511 28.2408 57.7566 28.0532 57.3894C27.7638 56.8128 27.4121 56.3915 27.0524 56.1809C26.7553 56.0011 26.6145 55.9703 26.1532 55.978C25.8092 55.9857 25.4496 56.0474 25.1837 56.1488C24.7068 56.3363 24.6286 56.3055 24.4254 55.9074C24.2612 55.6031 24.3237 55.4001 24.6833 55.0573C24.9258 54.8158 25.2619 54.6669 26.5677 54.175C29.2181 53.1926 29.4058 53.1541 32.2909 53.0295C33.6435 52.9743 35.2228 52.9281 35.8014 52.9281C36.81 52.9281 36.8491 52.9358 36.9977 53.122C37.0994 53.2478 37.1383 53.3801 37.1071 53.5278C37.0681 53.7153 37.1071 53.7628 37.4903 53.9644L37.9124 54.1994L37.9594 53.9734C38.061 53.5124 38.4363 53.4815 39.3901 53.8552C41.2901 54.5885 43.1978 55.6737 44.0578 56.5161C44.6521 57.0927 46.0906 58.9574 46.4973 59.6829C46.6849 60.0104 46.7396 60.1979 46.7396 60.5485C46.7396 60.7989 46.7631 61.0326 46.7944 61.0789C46.8726 61.2034 46.8413 64.1134 46.7553 64.6284C46.7162 64.8788 46.6301 65.1588 46.5599 65.2602C46.4582 65.4169 46.4113 65.44 46.2783 65.3617C46.1923 65.3154 46.0985 65.291 46.0828 65.3077C46.0672 65.3308 46.3331 66.1656 46.6849 67.1711C47.373 69.168 47.6935 70.3932 47.889 71.7583C48.061 72.9128 48.2877 73.7012 48.921 75.2371C49.8749 77.5782 49.9218 77.8582 49.8592 80.7759C49.8123 82.8897 49.7264 83.7719 49.5309 84.0673C49.3745 84.2946 49.265 84.2946 48.9132 84.0519C48.6396 83.8644 48.6083 83.8644 48.3972 83.9748C48.2642 84.0442 48.1626 84.1379 48.1626 84.1931C48.1626 84.2394 48.3737 84.5668 48.6318 84.9097C48.8897 85.2539 49.14 85.6751 49.1869 85.8382C49.3276 86.3531 49.4136 87.8595 49.4136 89.9181V91.8919H53.4792H57.5528L57.5137 91.6351C57.4903 91.5015 57.4512 90.9095 57.4277 90.3316C57.3651 88.9819 57.1774 86.6344 57.0681 85.8934C56.9977 85.4016 56.6223 84.2548 56.3644 83.7321C56.3096 83.6229 56.3174 83.2724 56.4035 82.5622C56.5364 81.3846 56.5051 81.0019 56.0985 79.2554C55.95 78.6313 55.7936 77.8274 55.7388 77.4601C55.6215 76.5791 55.6137 73.5921 55.7388 72.9127C55.9735 71.563 57.7873 67.7644 59.2494 65.5723C60.1095 64.2701 60.7741 63.6062 61.9233 62.8973C62.4159 62.5852 63.2135 62.0626 63.6826 61.7184C64.6051 61.0634 64.48 61.2034 66.3565 58.7005C67.4277 57.2648 68.3972 56.1732 69.0305 55.6737C69.5856 55.2293 70.8678 54.6052 71.2041 54.6052C71.3369 54.6052 71.4855 54.6592 71.5403 54.7298C71.7358 54.9558 71.9781 55.0264 72.5958 55.0341C73.2135 55.0341 73.2291 55.0419 73.706 55.4001C74.2299 55.7905 74.5582 55.9228 75.3949 56.118C75.9969 56.258 76.2392 56.4224 77.9985 57.9274C78.6005 58.4424 79.2728 58.9882 79.484 59.1295C79.6951 59.2771 80.0782 59.5892 80.3362 59.8306C80.5942 60.0733 81.0086 60.4316 81.2589 60.6422C81.8374 61.1264 82.1736 61.6876 82.1736 62.1871C82.1736 62.39 82.2283 62.7252 82.2987 62.9281C82.5567 63.6999 83.0258 64.0595 83.8937 64.1609C84.6912 64.2547 85.1837 64.3716 85.4496 64.5346L85.7154 64.699L85.6607 64.1686C85.5512 63.0527 85.0821 62.0305 84.4956 61.5938C84.3081 61.4538 84.1595 61.4307 83.5965 61.4307C83.2213 61.4307 82.7913 61.4616 82.6349 61.4924C82.2518 61.5861 82.158 61.3755 82.4863 61.1803C82.6192 61.111 82.7209 61.0249 82.7209 61.0018C82.7209 60.9774 82.4863 60.876 82.1971 60.7745C81.1103 60.3931 80.563 59.9719 80.6646 59.5892C80.7194 59.3863 81.3604 58.8713 82.2674 58.3024C82.6662 58.052 83.19 57.6937 83.4245 57.5062L83.8546 57.1556L84.5973 57.2096C85.3871 57.2648 85.6137 57.374 85.6137 57.686C85.6137 58.052 85.8483 58.6299 86.0985 58.8713C86.4113 59.168 86.513 59.1988 87.4277 59.2848C87.8264 59.3246 88.233 59.3786 88.3346 59.4017C88.5614 59.4723 88.5614 59.2925 88.3424 58.6376C87.9046 57.3187 87.1853 56.8667 86.1297 57.2263C85.6997 57.374 85.5824 57.3033 85.645 56.9219C85.6763 56.7884 85.6528 56.7113 85.5903 56.7036C85.0508 56.6715 84.8788 56.5315 84.9492 56.1732C85.0664 55.5324 85.2385 55.431 86.4347 55.2756C87.8968 55.0804 88.2564 55.002 89.1166 54.7144C89.9218 54.4486 90.4535 54.2071 90.8913 53.9028C91.0946 53.7705 91.2041 53.7538 91.6732 53.7936C92.9554 53.9028 94.5739 53.271 95.1994 52.4285C95.5746 51.9136 95.7623 51.2971 95.9344 49.9243C96.1297 48.427 96.3096 47.8182 96.7162 47.257L97.029 46.8114L96.5832 46.8512C94.0422 47.0696 92.33 47.6385 91.298 48.5978C90.6881 49.1679 90.4144 49.7214 90.3049 50.6191C90.2033 51.3832 90.3049 52.3425 90.5395 52.8651C90.649 53.1066 90.6724 53.2555 90.6177 53.3172C90.43 53.5432 89.7029 53.8553 89.2572 53.8951C88.8506 53.9336 88.7803 53.9644 88.7803 54.098C88.7803 54.238 88.7099 54.2611 87.9203 54.3009C87.154 54.3471 86.9351 54.3946 85.9422 54.7452C84.8397 55.1356 84.8006 55.1587 83.6357 56.032C81.5559 57.6 80.4691 58.2716 80.0313 58.2716C79.7419 58.2716 79.4918 58.0764 78.108 56.8282C75.864 54.7991 75.4496 54.5577 73.4949 54.175C72.5176 53.9811 72.1971 53.7384 72.4003 53.357C72.5019 53.1695 73.7999 52.53 74.8632 52.1473C76.2627 51.64 78.0454 51.1649 79.3432 50.9465L80.6177 50.7359L81.0633 50.1812C81.3135 49.8781 81.7983 49.3554 82.1345 49.019C82.4785 48.6761 83.1118 48.0289 83.5418 47.5768C84.4254 46.6406 85.2932 45.9305 86.0672 45.5093C86.3565 45.3449 86.8491 45.0405 87.1696 44.8299C87.4903 44.6116 87.8968 44.4087 88.0689 44.3702C88.2486 44.3317 88.5771 44.2302 88.7959 44.1442C89.14 44.0042 89.2494 43.9952 89.4527 44.0658C89.8123 44.1904 90.8365 44.175 91.298 44.035C92.2283 43.7615 92.5801 43.3171 93.0649 41.8044C93.3621 40.8836 93.4949 40.6023 93.7764 40.244L94.1204 39.7984L93.7686 39.7522C93.1744 39.6739 92.025 39.706 91.3839 39.8151C90.1877 40.0334 89.3667 40.5946 89.0383 41.4217C88.9054 41.7645 88.8663 42.0381 88.8506 42.7482L88.835 43.6446L88.5849 43.7461C88.3503 43.8398 88.3424 43.8398 88.3894 43.6754C88.4363 43.5509 88.4206 43.5123 88.3424 43.5431C87.6622 43.8167 87.4981 43.8937 87.326 44.0735C87.154 44.2379 86.6927 44.5268 85.5122 45.1818C85.3871 45.2601 85.2463 45.2986 85.2072 45.2755C85.0899 45.2049 85.1368 44.776 85.348 44.0119C85.5433 43.3017 85.5668 43.2542 85.9969 42.8574C86.4973 42.3964 86.896 41.6862 86.9821 41.1096C87.0446 40.6961 86.8804 40.1426 86.5599 39.6662C86.4426 39.4954 86.1454 39.0652 85.9031 38.7146C85.5824 38.2394 85.4418 37.9505 85.3636 37.5986L85.2697 37.1312L85.043 37.3495C84.6364 37.7322 83.8781 38.8006 83.6122 39.3541C83.1587 40.298 83.1118 41.0236 83.448 41.6952C83.6591 42.1164 84.3706 42.8497 84.785 43.068C85.1212 43.2388 85.1212 43.2465 85.0508 43.52C84.9649 43.8167 84.7303 44.2058 84.5348 44.3625C84.4332 44.4485 84.4489 44.4716 84.613 44.5345C84.8006 44.6039 84.8085 44.627 84.7459 44.9866C84.7068 45.1895 84.6599 45.4707 84.6364 45.603C84.5973 45.8136 84.4645 45.9382 83.6357 46.4763C82.8069 47.0143 82.5645 47.2327 81.7749 48.0995C81.2745 48.653 80.7663 49.2219 80.649 49.3554C80.4065 49.6585 80.3049 49.6906 77.9124 50.2364C76.9664 50.4547 75.3949 50.8297 74.4176 51.0634L72.6349 51.5L71.4073 52.2641C70.7272 52.6853 69.398 53.5355 68.4519 54.1519L66.7318 55.2756L65.8483 56.3286C64.5269 57.8812 63.2604 59.1988 62.369 59.9398C61.6419 60.5485 59.7654 61.7582 59.6795 61.6799C59.6013 61.5938 60.1486 60.5639 60.5004 60.1594C61.2276 59.3002 61.3058 59.1757 61.1885 59.0126C61.0868 58.8713 61.0712 58.879 60.7819 59.114C60.3909 59.4338 60.2346 59.4338 60.1721 59.114C60.0782 58.6453 60.3987 55.6506 60.6099 54.9943C60.6568 54.8467 60.8209 54.5731 60.9695 54.3869C61.1181 54.2071 61.2276 54.0427 61.2119 54.035C61.1963 54.0196 61.079 53.9644 60.9538 53.9182L60.7272 53.8167L60.7819 53.1772C60.8053 52.8266 60.8678 52.0612 60.9069 51.4846C61.0321 49.6983 61.2667 48.7929 61.8374 47.9274C62.2362 47.3187 62.3378 47.2249 64.136 45.9921C67.5137 43.6677 68.8506 42.9344 70.6412 42.4362C71.5324 42.1858 73.7608 41.8737 74.6286 41.8814H75.4027L76.6223 41.2342C77.7795 40.61 79.4918 39.783 80.7663 39.2372C81.0868 39.0973 82.1892 38.5823 83.2135 38.0827C85.0586 37.1864 85.0664 37.1774 85.1446 36.882C85.2072 36.647 85.1994 36.5379 85.1055 36.3594C84.699 35.5632 85.2619 34.7836 87.2165 33.4648C87.889 33.005 88.5536 32.4824 88.9367 32.0997C90.7115 30.3134 91.1572 29.8215 91.3839 29.3618C91.6497 28.8391 91.9624 28.5347 92.7287 28.0429C93.6435 27.4586 94.3863 27.0913 94.4332 27.2171C94.4489 27.2711 94.613 27.4971 94.8007 27.7231C95.043 28.0275 95.1368 28.2227 95.1759 28.5116C95.2854 29.3065 95.8483 30.1657 96.4426 30.4302C96.7005 30.5471 96.9664 30.5792 97.9828 30.5792C98.9992 30.5792 99.2806 30.6023 99.6091 30.7269L100 30.8745L99.9453 30.6716C99.8123 30.1182 99.4996 29.2449 99.2728 28.8237C98.921 28.152 98.186 27.4355 97.7091 27.3019C97.1853 27.1619 96.4035 27.2557 95.8014 27.5369L95.3167 27.7629L95.0742 27.4355C94.8006 27.0682 94.7772 26.8653 94.9883 26.7959C95.0742 26.7715 95.1759 26.7022 95.2307 26.6393C95.3949 26.4441 94.6364 26.7022 93.5574 27.2171C93.0101 27.474 92.5176 27.6923 92.4706 27.6923C92.3613 27.6923 92.455 26.218 92.6114 25.6324C92.8304 24.79 92.9945 24.5255 93.7608 23.7999C94.9649 22.6531 94.9571 22.6608 95.4731 22.6839C95.7936 22.6916 96.0515 22.77 96.3644 22.9344C97.1383 23.3402 97.5137 23.222 97.9672 22.4271C98.1001 22.1934 98.3112 21.9198 98.4363 21.8107L98.6631 21.6232L98.4754 21.4986C98.0141 21.1943 97.3417 21.0145 96.8178 21.0543C96.5599 21.0697 96.1923 21.4203 96.0828 21.7477C95.9735 22.1073 95.95 22.1227 95.645 22.1934C95.4262 22.2319 95.3949 22.2165 95.3714 22.0598C95.3558 21.9584 95.4183 21.7722 95.52 21.6232C96.0439 20.9053 96.0594 20.4764 95.5746 19.7585C95.1133 19.0805 94.9962 18.8468 94.9962 18.6438C94.9962 18.3857 94.8476 18.4872 94.441 19.0098C93.9874 19.6031 93.7139 20.2812 93.7686 20.6947C93.8233 21.0851 94.136 21.5294 94.5269 21.7644C94.699 21.8736 94.8398 21.9905 94.8398 22.0213C94.8476 22.2781 94.1595 23.082 93.6356 23.4326C92.674 24.0644 91.7905 26.0151 91.7905 27.4894V27.8721L90.6099 29.0266L89.4214 30.1811L89.4683 29.7367C89.4918 29.494 89.5544 28.4808 89.6091 27.4971L89.703 25.7031L89.4996 25.391C89.3119 25.1021 89.2963 25.0481 89.3745 24.7669C89.4996 24.3303 89.4214 23.2695 89.2337 22.8483C88.9289 22.169 88.4206 21.8261 87.2478 21.5294C86.4426 21.3265 85.8171 21.0222 85.5668 20.7268C85.301 20.4148 85.2776 20.5393 85.3167 21.9044C85.3636 23.1989 85.5122 23.8076 85.9344 24.4394C86.3956 25.1419 87.5137 25.5477 88.5145 25.3833L88.9758 25.305L89.0853 25.617C89.3901 26.4672 89.398 28.3793 89.1087 29.4863C88.7255 30.9683 88.6787 31.0389 87.412 32.1626C85.082 34.2289 83.9172 35.3911 83.5731 35.969C83.2291 36.57 82.7835 36.9437 82.1345 37.2018C81.9233 37.2878 80.3909 37.8952 78.7412 38.5669C77.0837 39.2372 75.7232 39.7676 75.6997 39.7522C75.6528 39.706 75.8953 39.2603 76.5051 38.3011C76.8178 37.8092 77.1618 37.2172 77.2791 36.9912C77.3886 36.7729 77.5372 36.5854 77.5919 36.5854C77.7795 36.5854 78.0063 36.2258 78.1471 35.7108C78.2564 35.3063 78.3268 35.1894 78.577 35.0097C79.1713 34.5961 79.6717 33.6291 79.6717 32.8882C79.6717 32.404 79.4527 31.9366 78.8585 31.125C78.3659 30.461 78.1392 29.9936 78.0689 29.5415C78.0141 29.1743 78.0063 29.1666 77.8499 29.3065C77.5528 29.5724 76.7865 30.5792 76.513 31.0697C75.9657 32.0534 75.8327 32.9575 76.1376 33.6369C76.3331 34.0889 77.0055 34.799 77.4355 35.0328C77.8264 35.2357 77.8655 35.3371 77.6778 35.7738L77.5685 36.0473L77.2791 35.9227C77.0133 35.8123 76.9977 35.8123 77.0524 35.9458C77.2713 36.507 77.1383 36.9128 76.3957 37.8953C75.8796 38.5746 74.6051 39.9166 74.2768 40.1195C74.1673 40.1888 73.8155 40.298 73.4949 40.3686C72.7522 40.524 70.5238 40.8438 69.6873 40.9144C69.1009 40.9619 69.0462 40.9529 68.9679 40.8129C68.921 40.7192 68.8819 40.5792 68.8819 40.4932C68.8819 40.2903 68.835 40.2903 68.4676 40.5086C68.2251 40.6499 68.1392 40.7667 68.0219 41.0942C67.9437 41.3279 67.8342 41.5616 67.7795 41.6169C67.7169 41.6785 67.2478 41.9058 66.7318 42.1318C65.348 42.7238 64.2299 43.3017 63.4949 43.7936C63.1353 44.035 62.8304 44.2302 62.8226 44.2302C62.8147 44.2302 62.7835 43.6677 62.76 42.9897C62.7131 42.0149 62.7287 41.6323 62.8226 41.2342C63.0101 40.4392 63.4871 38.8391 63.6122 38.6054C63.6747 38.4808 64.0813 38.1136 64.5269 37.7861C65.434 37.1003 66.0282 36.5622 66.1845 36.2656C66.2549 36.1333 66.2862 35.8521 66.2783 35.4694C66.2705 35.1496 66.2862 34.853 66.3253 34.8222C66.4269 34.7207 66.8413 35.2819 66.8491 35.5323C66.8569 35.8521 67.1618 36.5777 67.4433 36.9205C67.8342 37.4124 68.061 37.4817 69.3901 37.4894C70.2971 37.4894 70.6333 37.5215 70.8678 37.623C71.0321 37.6923 71.1806 37.7553 71.1885 37.7553C71.2745 37.7553 70.9226 36.733 70.6255 36.1243C70.2033 35.2434 69.6951 34.6899 69.1869 34.5563C68.7099 34.4241 67.9515 34.5101 67.459 34.7438L67.0446 34.939L66.8335 34.7361C66.5832 34.4947 66.5599 34.3547 66.7474 34.1518C66.8804 34.0029 66.8726 34.0029 66.5755 34.026C66.2783 34.0504 66.2627 34.0658 66.208 34.3778C66.1767 34.5563 66.0906 34.8145 66.0204 34.9621C65.9422 35.1034 65.8562 35.4155 65.8327 35.6492L65.7936 36.0704L64.3941 37.0297C63.6278 37.5601 62.9789 37.9736 62.9632 37.9582C62.9398 37.9428 62.971 37.7938 63.018 37.623C63.1118 37.3186 63.1196 36.9668 63.2526 30.8514C63.3699 25.68 63.5183 22.8329 63.7295 22.0598C63.8312 21.663 64.136 21.3265 64.5973 21.0928C64.8163 20.9837 65.301 20.5933 65.6841 20.2273C66.294 19.634 66.3956 19.5723 66.4817 19.6815C66.6067 19.8446 66.896 19.946 67.5294 20.0475C67.975 20.1181 68.1001 20.1797 68.3972 20.4456C69.0931 21.0928 70.2658 21.4755 71.0242 21.3034C71.5794 21.1789 71.9703 20.922 72.9241 20.0244C73.6591 19.3373 74.3707 18.8776 74.6912 18.8776C75.0586 18.8776 74.7537 18.613 73.6669 17.9799C72.7287 17.4341 71.6497 17.0836 70.9069 17.0836C70.5708 17.0836 70.1642 17.1375 69.9531 17.2081C69.2728 17.4341 68.319 18.5026 68.0845 19.2911L67.9906 19.5954L67.6309 19.5569C67.1227 19.494 66.6692 19.2757 66.7787 19.1344C66.8491 19.0574 66.8178 19.0342 66.6067 19.0342C66.3878 19.0419 66.1845 19.1742 65.4027 19.86L64.4645 20.6793L64.0735 20.6331C63.6356 20.5779 63.6122 20.5547 63.4401 20.009C63.2447 19.3848 63.2135 18.4564 63.3621 17.8631C63.5262 17.2312 63.706 16.9115 64.5426 15.7724C64.918 15.2741 65.5433 14.2596 65.9422 13.534C66.7396 12.0752 66.8569 11.9506 67.6154 11.74C68.3737 11.5371 68.5145 11.4357 68.8115 10.9522C68.968 10.6947 69.2415 10.2579 69.4214 9.96139C69.6013 9.67283 69.8123 9.27499 69.8827 9.07992L70.0235 8.72895L70.1721 9.02534C70.2736 9.23595 70.3205 9.50897 70.3283 9.98489C70.3283 10.5465 70.3674 10.7259 70.5551 11.1005C70.8287 11.6617 71.165 11.8723 72.1658 12.0906C72.6427 12.192 73.0492 12.3333 73.2917 12.4887L73.6748 12.7224L73.6278 11.88C73.5731 10.7727 73.3386 10.0862 72.846 9.61825C72.4081 9.20474 72.0094 9.09559 71.2041 9.158L70.5942 9.19703L70.4769 8.93172C70.4144 8.78353 70.3674 8.55737 70.3674 8.43255C70.3674 8.30773 70.3205 8.18291 70.2736 8.16724C70.2112 8.14387 70.2268 8.1205 70.3127 8.1205C70.4613 8.11266 70.7585 7.68361 70.7585 7.4653C70.7585 7.39505 70.9538 7.12203 71.1885 6.86455C71.5012 6.52911 71.6419 6.2873 71.7358 5.97537C71.8921 5.44487 71.814 5.13281 71.376 4.51652C70.9851 3.98615 70.6803 3.36987 70.6803 3.12022C70.6724 2.94082 70.6412 2.95648 70.3049 3.33083C69.8045 3.877 69.3745 4.61798 69.2728 5.11727C69.14 5.74126 69.2728 6.1079 69.8123 6.63057C70.0547 6.86455 70.3205 7.09866 70.4065 7.1454C70.5473 7.22348 70.5317 7.27806 70.0235 8.31557C69.3745 9.64163 68.7803 10.6323 68.5223 10.8352C68.4128 10.9209 67.9985 11.0696 67.5997 11.1544C66.896 11.3188 66.8647 11.3342 66.7396 11.6077C66.5051 12.106 65.1212 14.1119 64.8398 14.3533C64.5269 14.6346 64.4254 14.6423 64.2064 14.4073C64.0031 14.189 63.9094 13.9552 63.839 13.448C63.7921 13.0743 63.8077 13.0114 64.0265 12.7147C64.1595 12.5285 64.269 12.3333 64.269 12.2704C64.269 12.2075 64.0891 11.9891 63.8624 11.7862L63.4636 11.4202L63.6669 10.6791C63.925 9.77429 63.925 9.58704 63.6826 8.78352C63.5809 8.44038 63.3308 7.42625 63.1353 6.54478C62.76 4.82074 62.76 4.81305 63.104 4.11098C63.2291 3.85349 63.2604 3.70529 63.2135 3.63505C63.1665 3.57276 63.0336 3.39323 62.9006 3.23733C62.7131 2.99551 62.6583 2.83949 62.6192 2.37923C62.5645 1.80198 62.3065 1.17786 62.025 0.920509C61.7514 0.670861 61.2901 0.53821 60.4769 0.468092C59.8592 0.413386 59.57 0.350968 59.2728 0.202772L58.8819 0L58.921 0.296389Z" fill="white"/>
<path d="M66.3464 56.3889L35.1175 29.6212C34.2359 28.8654 32.9342 28.865 32.0519 29.6212L0.822617 56.3889C0.074259 57.0305 -0.195548 58.0702 0.146404 58.9945C0.488355 59.919 1.36992 60.5326 2.35529 60.5326H8.92226V89.4064C8.92226 90.7071 9.97706 91.7619 11.2779 91.7619H55.8908C57.1917 91.7619 58.2461 90.7071 58.2461 89.4064V60.5326H64.8135C65.7989 60.5326 66.6806 59.919 67.0224 58.9945C67.3645 58.0699 67.0947 57.0305 66.3464 56.3889ZM55.8908 55.8219C54.59 55.8219 53.5356 56.8765 53.5356 58.1774V87.051H13.6334V58.1774C13.6334 56.8765 12.579 55.8219 11.2781 55.8219H8.72233L33.5848 34.5117L58.4464 55.8219H55.8908Z" fill="white"/>
<path d="M20.0552 62.7453C20.0552 65.6251 22.0059 68.8865 25.8535 72.4401C28.4931 74.8773 31.1019 76.6059 31.2115 76.6784C31.5915 76.9289 32.0275 77.0543 32.4638 77.0543C32.9002 77.0543 33.3366 76.9291 33.7166 76.6784C33.8262 76.6059 36.4346 74.8773 39.0733 72.4395C42.9204 68.8861 44.8708 65.6247 44.8708 62.7453C44.8708 58.5415 41.5781 55.1216 37.5314 55.1216C35.568 55.1216 33.7828 55.9257 32.4638 57.2333C31.1454 55.9257 29.3601 55.1216 27.3972 55.1216C23.3487 55.1216 20.0552 58.5415 20.0552 62.7453ZM30.1894 62.7453C30.1894 64.0015 31.2076 65.02 32.4638 65.02C33.7201 65.02 34.7383 64.0015 34.7383 62.7453C34.7383 61.0496 35.991 59.6707 37.5314 59.6707C39.07 59.6707 40.3215 61.0496 40.3215 62.7453C40.3215 65.2794 36.0672 69.3805 32.4621 72.0099C28.8576 69.386 24.604 65.2881 24.604 62.7453C24.604 61.0496 25.8572 59.6707 27.3972 59.6707C28.9367 59.6707 30.1894 61.0499 30.1894 62.7453Z" fill="white"/>
</svg>
